<svg width="16" height="16" viewBox="0 0 16 16" fill="none" xmlns="http://www.w3.org/2000/svg">
<path d="M7.99999 16C8.48725 16.0002 8.9578 15.8225 9.3233 15.5002C9.68879 15.178 9.92408 14.7334 9.98499 14.25C10.002 14.113 9.88799 14 9.74999 14H6.24999C6.11199 14 5.99799 14.113 6.01499 14.25C6.0759 14.7334 6.31119 15.178 6.67669 15.5002C7.04218 15.8225 7.51274 16.0002 7.99999 16ZM2.99999 5C2.99999 3.67392 3.52678 2.40215 4.46446 1.46447C5.40214 0.526784 6.67391 0 7.99999 0C9.32607 0 10.5978 0.526784 11.5355 1.46447C12.4732 2.40215 13 3.67392 13 5V7.947C13 7.997 13.015 8.045 13.042 8.086L14.745 10.641C14.8968 10.8697 14.9837 11.1352 14.9967 11.4093C15.0096 11.6835 14.9481 11.956 14.8185 12.198C14.689 12.4399 14.4963 12.6423 14.261 12.7835C14.0256 12.9247 13.7564 12.9995 13.482 13H2.51799C2.24297 13.0007 1.97295 12.9265 1.73685 12.7855C1.50075 12.6444 1.30746 12.4418 1.1777 12.1993C1.04793 11.9568 0.986565 11.6836 1.00018 11.4089C1.0138 11.1343 1.10188 10.8685 1.25499 10.64L2.95799 8.086C2.98517 8.04472 2.99976 7.99642 2.99999 7.947V5ZM7.99999 1.5C7.07173 1.5 6.1815 1.86875 5.52512 2.52513C4.86874 3.1815 4.49999 4.07174 4.49999 5V7.947C4.49999 8.293 4.39799 8.63 4.20599 8.917L2.50299 11.473C2.50097 11.4759 2.49992 11.4794 2.49999 11.483L2.50099 11.489C2.50099 11.491 2.50299 11.493 2.50499 11.495L2.51099 11.499L2.51799 11.5H13.482L13.489 11.499L13.495 11.495L13.499 11.489L13.5 11.482C13.5001 11.4784 13.499 11.4749 13.497 11.472L11.794 8.918C11.6022 8.63088 11.4999 8.2933 11.5 7.948V5C11.5 4.07174 11.1312 3.1815 10.4749 2.52513C9.81849 1.86875 8.92825 1.5 7.99999 1.5Z" fill="white"/>
</svg>
