<svg xmlns="http://www.w3.org/2000/svg" width="350" height="555" fill="none" viewBox="0 0 350 555"><g clip-path="url(#clip0_1_7)"><path stroke="url(#paint0_linear_1_7)" stroke-linecap="round" stroke-width="3" d="M9.78931 553.849V229.126"/><path stroke="url(#paint1_linear_1_7)" stroke-linecap="round" stroke-width="3" d="M313.144 70.2186V99.5369C313.144 180.092 251.625 245.393 175.737 245.393H103.417C51.4938 245.393 9.40155 290.074 9.40155 345.191V386.268"/><g filter="url(#filter0_dd_1_7)"><path fill="#fff" d="M10.6468 231.605C13.7332 230.727 15.8162 228.355 15.2993 226.308C14.7825 224.26 11.8614 223.312 8.77502 224.19C5.68861 225.068 3.60559 227.439 4.12247 229.487C4.63935 231.534 7.56038 232.483 10.6468 231.605Z"/><path stroke="#9A74D0" stroke-width="2" d="M14.6008 226.506C14.7714 227.183 14.5393 228.025 13.7954 228.872C13.0596 229.709 11.8928 230.456 10.4596 230.864C9.02638 231.271 7.66438 231.244 6.63258 230.909C5.58931 230.57 4.99165 229.964 4.82104 229.288C4.65043 228.612 4.88252 227.77 5.62648 226.923C6.36226 226.086 7.529 225.339 8.96223 224.931C10.3955 224.523 11.7575 224.551 12.7892 224.886C13.8325 225.224 14.4302 225.831 14.6008 226.506Z"/></g><g filter="url(#filter1_dd_1_7)"><path fill="#fff" d="M314.539 71.1093C317.306 69.4134 318.74 66.5504 317.741 64.7145C316.742 62.8787 313.69 62.7652 310.923 64.4611C308.155 66.157 306.722 69.02 307.72 70.8559C308.719 72.6917 311.771 72.8052 314.539 71.1093Z"/><path stroke="#9A74D0" stroke-width="2" d="M317.115 65.0984C317.444 65.7044 317.426 66.5815 316.913 67.6041C316.407 68.6153 315.462 69.657 314.177 70.4445C312.892 71.232 311.57 71.5798 310.492 71.5398C309.401 71.4992 308.676 71.078 308.347 70.472C308.017 69.866 308.036 68.9889 308.548 67.9664C309.055 66.955 309.999 65.9134 311.284 65.1259C312.569 64.3384 313.891 63.9906 314.97 64.0306C316.06 64.0711 316.785 64.4924 317.115 65.0984Z"/></g><line x1="9.18" x2="9.18" y1="231.376" y2="821.582" stroke="url(#paint2_linear_1_7)" stroke-width="3"/></g><defs><filter id="filter0_dd_1_7" width="19.888" height="16.535" x="-1.233" y="218.63" color-interpolation-filters="sRGB" filterUnits="userSpaceOnUse"><feFlood flood-opacity="0" result="BackgroundImageFix"/><feColorMatrix in="SourceAlpha" result="hardAlpha" type="matrix" values="0 0 0 0 0 0 0 0 0 0 0 0 0 0 0 0 0 0 127 0"/><feOffset dx="-1" dy="-1"/><feGaussianBlur stdDeviation="2"/><feComposite in2="hardAlpha" operator="out"/><feColorMatrix type="matrix" values="0 0 0 0 0 0 0 0 0 0 0 0 0 0 0 0 0 0 0.15 0"/><feBlend in2="BackgroundImageFix" mode="normal" result="effect1_dropShadow_1_7"/><feColorMatrix in="SourceAlpha" result="hardAlpha" type="matrix" values="0 0 0 0 0 0 0 0 0 0 0 0 0 0 0 0 0 0 127 0"/><feOffset dx="-1" dy="-1"/><feGaussianBlur stdDeviation="1"/><feComposite in2="hardAlpha" operator="out"/><feColorMatrix type="matrix" values="0 0 0 0 0 0 0 0 0 0 0 0 0 0 0 0 0 0 0.15 0"/><feBlend in2="effect1_dropShadow_1_7" mode="normal" result="effect2_dropShadow_1_7"/><feBlend in="SourceGraphic" in2="effect2_dropShadow_1_7" mode="normal" result="shape"/></filter><filter id="filter1_dd_1_7" width="19.21" height="17.515" x="302.126" y="58.028" color-interpolation-filters="sRGB" filterUnits="userSpaceOnUse"><feFlood flood-opacity="0" result="BackgroundImageFix"/><feColorMatrix in="SourceAlpha" result="hardAlpha" type="matrix" values="0 0 0 0 0 0 0 0 0 0 0 0 0 0 0 0 0 0 127 0"/><feOffset dx="-1" dy="-1"/><feGaussianBlur stdDeviation="2"/><feComposite in2="hardAlpha" operator="out"/><feColorMatrix type="matrix" values="0 0 0 0 0 0 0 0 0 0 0 0 0 0 0 0 0 0 0.15 0"/><feBlend in2="BackgroundImageFix" mode="normal" result="effect1_dropShadow_1_7"/><feColorMatrix in="SourceAlpha" result="hardAlpha" type="matrix" values="0 0 0 0 0 0 0 0 0 0 0 0 0 0 0 0 0 0 127 0"/><feOffset dx="-1" dy="-1"/><feGaussianBlur stdDeviation="1"/><feComposite in2="hardAlpha" operator="out"/><feColorMatrix type="matrix" values="0 0 0 0 0 0 0 0 0 0 0 0 0 0 0 0 0 0 0.15 0"/><feBlend in2="effect1_dropShadow_1_7" mode="normal" result="effect2_dropShadow_1_7"/><feBlend in="SourceGraphic" in2="effect2_dropShadow_1_7" mode="normal" result="shape"/></filter><linearGradient id="paint0_linear_1_7" x1="nan" x2="nan" y1="nan" y2="nan" gradientUnits="userSpaceOnUse"><stop stop-color="#7B00FF"/><stop offset=".091" stop-color="#A371F7"/><stop offset=".599" stop-color="#6639BA"/><stop offset=".902" stop-color="#6639BA"/><stop offset="1" stop-color="#D2A8FF" stop-opacity="0"/></linearGradient><linearGradient id="paint1_linear_1_7" x1="-85.337" x2="314.991" y1="478.233" y2="57.004" gradientUnits="userSpaceOnUse"><stop stop-color="#A371F7"/><stop offset=".007" stop-color="#9E72D3"/><stop offset=".252" stop-color="#6639BA" stop-opacity="0"/><stop offset=".326" stop-color="#6639BA"/><stop offset=".945" stop-color="#6639BA"/><stop offset="1" stop-color="#6639BA" stop-opacity="0"/></linearGradient><linearGradient id="paint2_linear_1_7" x1="7.68" x2="7.68" y1="341.376" y2="231.376" gradientUnits="userSpaceOnUse"><stop stop-color="#673ABA"/><stop offset="1" stop-color="#9A74D0"/></linearGradient><clipPath id="clip0_1_7"><rect width="350" height="555" fill="#fff"/></clipPath></defs></svg>